<svg width="358" height="113" viewBox="0 0 358 113" fill="none" xmlns="http://www.w3.org/2000/svg">
<ellipse cx="54.9967" cy="61.2588" rx="15.518" ry="14.6052" transform="rotate(-1.18987 54.9967 61.2588)" fill="#78B68D"/>
<rect x="69.6294" y="18.4993" width="46.9239" height="10.0411" rx="5.02054" transform="rotate(88.7098 69.6294 18.4993)" fill="#78B68D"/>
<rect x="61.9629" y="17.0001" width="26.472" height="10.0411" rx="5.02054" transform="rotate(17.1632 61.9629 17.0001)" fill="#78B68D"/>
<path d="M58.3358 36.5569C58.8619 32.5519 55.9903 28.8026 51.9732 29.2261C47.2623 29.7229 42.6785 31.2491 38.561 33.7321C32.3274 37.4912 27.5258 43.2241 24.9301 50.0068C22.3345 56.7894 22.096 64.2267 24.2531 71.1197C26.4102 78.0127 30.8372 83.9598 36.8205 88.0025C42.8039 92.0452 49.995 93.9479 57.2346 93.4039C64.4743 92.8599 71.3408 89.9009 76.7273 85.0039C82.1137 80.1069 85.7064 73.5571 86.926 66.4104C87.7305 61.6968 87.4718 56.9047 86.2066 52.3729C85.1205 48.4826 80.579 47.1952 77.0432 49.1477C73.5213 51.0926 72.4169 55.5749 72.7667 59.5829C72.8971 61.0772 72.8372 62.5932 72.5809 64.0948C71.9108 68.0213 69.937 71.6199 66.9775 74.3104C64.0181 77.0009 60.2456 78.6266 56.2679 78.9255C52.2903 79.2244 48.3394 78.179 45.0521 75.9579C41.7647 73.7368 39.3324 70.4693 38.1473 66.6821C36.9621 62.895 37.0932 58.8089 38.5193 55.0824C39.9454 51.3558 42.5835 48.2061 46.0083 46.1408C47.3508 45.3312 48.7835 44.7067 50.2675 44.2758C54.0975 43.1635 57.8163 40.5112 58.3358 36.5569Z" fill="url(#paint0_linear_13_637)"/>
<path d="M58.3358 36.5569C58.8619 32.5519 55.9903 28.8026 51.9732 29.2261C47.2623 29.7229 42.6785 31.2491 38.561 33.7321C32.3274 37.4912 27.5258 43.2241 24.9301 50.0068C22.3345 56.7894 22.096 64.2267 24.2531 71.1197C26.4102 78.0127 30.8372 83.9598 36.8205 88.0025C42.8039 92.0452 49.995 93.9479 57.2346 93.4039C64.4743 92.8599 71.3408 89.9009 76.7273 85.0039C82.1137 80.1069 85.7064 73.5571 86.926 66.4104C87.7305 61.6968 87.4718 56.9047 86.2066 52.3729C85.1205 48.4826 80.579 47.1952 77.0432 49.1477C73.5213 51.0926 72.4169 55.5749 72.7667 59.5829C72.8971 61.0772 72.8372 62.5932 72.5809 64.0948C71.9108 68.0213 69.937 71.6199 66.9775 74.3104C64.0181 77.0009 60.2456 78.6266 56.2679 78.9255C52.2903 79.2244 48.3394 78.179 45.0521 75.9579C41.7647 73.7368 39.3324 70.4693 38.1473 66.6821C36.9621 62.895 37.0932 58.8089 38.5193 55.0824C39.9454 51.3558 42.5835 48.2061 46.0083 46.1408C47.3508 45.3312 48.7835 44.7067 50.2675 44.2758C54.0975 43.1635 57.8163 40.5112 58.3358 36.5569Z" stroke="black"/>
<path d="M106.192 69V43.8H121.528C123.232 43.8 124.756 44.16 126.1 44.88C127.468 45.6 128.548 46.584 129.34 47.832C130.156 49.08 130.564 50.484 130.564 52.044C130.564 53.748 130.12 55.272 129.232 56.616C128.368 57.96 127.204 59.016 125.74 59.784C124.276 60.552 122.632 60.936 120.808 60.936H112.312V69H106.192ZM112.204 55.572H119.656C120.472 55.572 121.216 55.428 121.888 55.14C122.56 54.828 123.1 54.42 123.508 53.916C123.916 53.388 124.12 52.8 124.12 52.152C124.12 51.528 123.916 51 123.508 50.568C123.1 50.136 122.56 49.8 121.888 49.56C121.216 49.32 120.472 49.2 119.656 49.2H112.204V55.572ZM150.28 69.324C147.976 69.324 145.984 68.904 144.304 68.064C142.648 67.224 141.364 66.06 140.452 64.572C139.564 63.084 139.12 61.38 139.12 59.46C139.12 57.516 139.588 55.8 140.524 54.312C141.46 52.8 142.768 51.624 144.448 50.784C146.128 49.92 148.096 49.488 150.352 49.488C151.672 49.488 152.896 49.644 154.024 49.956C155.152 50.244 156.148 50.628 157.012 51.108C157.876 51.588 158.56 52.104 159.064 52.656C159.568 53.184 159.868 53.7 159.964 54.204L158.524 54.42V49.884H164.212V69H158.416V63.672L159.568 64.176C159.52 64.752 159.232 65.34 158.704 65.94C158.2 66.54 157.528 67.104 156.688 67.632C155.848 68.136 154.876 68.544 153.772 68.856C152.668 69.168 151.504 69.324 150.28 69.324ZM151.72 64.464C153.136 64.464 154.348 64.26 155.356 63.852C156.388 63.42 157.18 62.832 157.732 62.088C158.308 61.32 158.596 60.444 158.596 59.46C158.596 58.452 158.308 57.576 157.732 56.832C157.18 56.088 156.388 55.5 155.356 55.068C154.348 54.612 153.136 54.384 151.72 54.384C150.352 54.384 149.152 54.612 148.12 55.068C147.088 55.5 146.284 56.088 145.708 56.832C145.132 57.576 144.844 58.452 144.844 59.46C144.844 60.444 145.132 61.32 145.708 62.088C146.284 62.832 147.088 63.42 148.12 63.852C149.152 64.26 150.352 64.464 151.72 64.464ZM186.632 69.324C184.328 69.324 182.336 68.904 180.656 68.064C179 67.224 177.716 66.06 176.804 64.572C175.916 63.084 175.472 61.38 175.472 59.46C175.472 57.516 175.94 55.8 176.876 54.312C177.812 52.8 179.12 51.624 180.8 50.784C182.48 49.92 184.448 49.488 186.704 49.488C188.024 49.488 189.248 49.644 190.376 49.956C191.504 50.244 192.5 50.628 193.364 51.108C194.228 51.588 194.912 52.104 195.416 52.656C195.92 53.184 196.22 53.7 196.316 54.204L194.876 54.42V49.884H200.564V69H194.768V63.672L195.92 64.176C195.872 64.752 195.584 65.34 195.056 65.94C194.552 66.54 193.88 67.104 193.04 67.632C192.2 68.136 191.228 68.544 190.124 68.856C189.02 69.168 187.856 69.324 186.632 69.324ZM188.072 64.464C189.488 64.464 190.7 64.26 191.708 63.852C192.74 63.42 193.532 62.832 194.084 62.088C194.66 61.32 194.948 60.444 194.948 59.46C194.948 58.452 194.66 57.576 194.084 56.832C193.532 56.088 192.74 55.5 191.708 55.068C190.7 54.612 189.488 54.384 188.072 54.384C186.704 54.384 185.504 54.612 184.472 55.068C183.44 55.5 182.636 56.088 182.06 56.832C181.484 57.576 181.196 58.452 181.196 59.46C181.196 60.444 181.484 61.32 182.06 62.088C182.636 62.832 183.44 63.42 184.472 63.852C185.504 64.26 186.704 64.464 188.072 64.464ZM217.476 69V43.98H223.236V69H217.476ZM211.932 54.924V49.884H229.824V54.924H211.932ZM242.917 69V49.884H248.677V69H242.917ZM245.761 45.744C244.681 45.744 243.841 45.492 243.241 44.988C242.641 44.46 242.341 43.716 242.341 42.756C242.341 41.892 242.641 41.184 243.241 40.632C243.865 40.08 244.705 39.804 245.761 39.804C246.841 39.804 247.681 40.068 248.281 40.596C248.905 41.1 249.217 41.82 249.217 42.756C249.217 43.644 248.905 44.364 248.281 44.916C247.657 45.468 246.817 45.744 245.761 45.744ZM265.194 69V50.46C265.194 48.804 265.554 47.364 266.274 46.14C266.994 44.916 268.002 43.968 269.298 43.296C270.594 42.624 272.106 42.288 273.834 42.288C275.274 42.288 276.486 42.456 277.47 42.792C278.478 43.128 279.27 43.464 279.846 43.8L278.226 48.084C277.818 47.868 277.266 47.64 276.57 47.4C275.898 47.136 275.214 47.004 274.518 47.004C273.63 47.004 272.898 47.16 272.322 47.472C271.746 47.784 271.314 48.204 271.026 48.732C270.762 49.236 270.63 49.812 270.63 50.46V69H267.93C267.402 69 266.91 69 266.454 69C265.998 69 265.578 69 265.194 69ZM260.982 55.536V50.784H278.514V55.536H260.982ZM292.499 77.28L298.439 67.056L298.043 69.864L286.451 49.884H293.291L298.727 60.324C299.207 61.236 299.663 62.148 300.095 63.06C300.551 63.972 300.935 64.884 301.247 65.796H299.735C300.071 65.004 300.455 64.128 300.887 63.168C301.343 62.184 301.799 61.236 302.255 60.324L307.619 49.884H314.315L303.083 69.216L298.475 77.28H292.499Z" fill="white"/>
<ellipse cx="54.9967" cy="61.2588" rx="15.518" ry="14.6052" transform="rotate(-1.18987 54.9967 61.2588)" fill="#78B68D"/>
<rect x="69.6299" y="18.4993" width="46.9239" height="10.0411" rx="5.02054" transform="rotate(88.7098 69.6299 18.4993)" fill="#78B68D"/>
<path d="M58.3358 36.5569C58.8619 32.5519 55.9903 28.8026 51.9732 29.2261C47.2623 29.7229 42.6785 31.2491 38.561 33.7321C32.3274 37.4912 27.5258 43.2241 24.9301 50.0068C22.3345 56.7894 22.096 64.2267 24.2531 71.1197C26.4102 78.0127 30.8372 83.9598 36.8205 88.0025C42.8039 92.0452 49.995 93.9479 57.2346 93.4039C64.4743 92.8599 71.3408 89.9009 76.7273 85.0039C82.1137 80.1069 85.7064 73.5571 86.926 66.4104C87.7305 61.6968 87.4718 56.9047 86.2066 52.3729C85.1205 48.4826 80.579 47.1952 77.0432 49.1477C73.5213 51.0926 72.4169 55.5749 72.7667 59.5829C72.8971 61.0772 72.8372 62.5932 72.5809 64.0948C71.9108 68.0213 69.937 71.6199 66.9775 74.3104C64.0181 77.0009 60.2456 78.6266 56.2679 78.9255C52.2903 79.2244 48.3394 78.179 45.0521 75.9579C41.7647 73.7368 39.3324 70.4693 38.1473 66.6821C36.9621 62.895 37.0932 58.8089 38.5193 55.0824C39.9454 51.3558 42.5835 48.2061 46.0083 46.1408C47.3508 45.3312 48.7835 44.7067 50.2675 44.2758C54.0975 43.1635 57.8163 40.5112 58.3358 36.5569Z" fill="url(#paint1_linear_13_637)"/>
<path d="M58.3358 36.5569C58.8619 32.5519 55.9903 28.8026 51.9732 29.2261C47.2623 29.7229 42.6785 31.2491 38.561 33.7321C32.3274 37.4912 27.5258 43.2241 24.9301 50.0068C22.3345 56.7894 22.096 64.2267 24.2531 71.1197C26.4102 78.0127 30.8372 83.9598 36.8205 88.0025C42.8039 92.0452 49.995 93.9479 57.2346 93.4039C64.4743 92.8599 71.3408 89.9009 76.7273 85.0039C82.1137 80.1069 85.7064 73.5571 86.926 66.4104C87.7305 61.6968 87.4718 56.9047 86.2066 52.3729C85.1205 48.4826 80.579 47.1952 77.0432 49.1477C73.5213 51.0926 72.4169 55.5749 72.7667 59.5829C72.8971 61.0772 72.8372 62.5932 72.5809 64.0948C71.9108 68.0213 69.937 71.6199 66.9775 74.3104C64.0181 77.0009 60.2456 78.6266 56.2679 78.9255C52.2903 79.2244 48.3394 78.179 45.0521 75.9579C41.7647 73.7368 39.3324 70.4693 38.1473 66.6821C36.9621 62.895 37.0932 58.8089 38.5193 55.0824C39.9454 51.3558 42.5835 48.2061 46.0083 46.1408C47.3508 45.3312 48.7835 44.7067 50.2675 44.2758C54.0975 43.1635 57.8163 40.5112 58.3358 36.5569Z" stroke="black"/>
<path d="M106.192 69V43.8H121.528C123.232 43.8 124.756 44.16 126.1 44.88C127.468 45.6 128.548 46.584 129.34 47.832C130.156 49.08 130.564 50.484 130.564 52.044C130.564 53.748 130.12 55.272 129.232 56.616C128.368 57.96 127.204 59.016 125.74 59.784C124.276 60.552 122.632 60.936 120.808 60.936H112.312V69H106.192ZM112.204 55.572H119.656C120.472 55.572 121.216 55.428 121.888 55.14C122.56 54.828 123.1 54.42 123.508 53.916C123.916 53.388 124.12 52.8 124.12 52.152C124.12 51.528 123.916 51 123.508 50.568C123.1 50.136 122.56 49.8 121.888 49.56C121.216 49.32 120.472 49.2 119.656 49.2H112.204V55.572ZM150.28 69.324C147.976 69.324 145.984 68.904 144.304 68.064C142.648 67.224 141.364 66.06 140.452 64.572C139.564 63.084 139.12 61.38 139.12 59.46C139.12 57.516 139.588 55.8 140.524 54.312C141.46 52.8 142.768 51.624 144.448 50.784C146.128 49.92 148.096 49.488 150.352 49.488C151.672 49.488 152.896 49.644 154.024 49.956C155.152 50.244 156.148 50.628 157.012 51.108C157.876 51.588 158.56 52.104 159.064 52.656C159.568 53.184 159.868 53.7 159.964 54.204L158.524 54.42V49.884H164.212V69H158.416V63.672L159.568 64.176C159.52 64.752 159.232 65.34 158.704 65.94C158.2 66.54 157.528 67.104 156.688 67.632C155.848 68.136 154.876 68.544 153.772 68.856C152.668 69.168 151.504 69.324 150.28 69.324ZM151.72 64.464C153.136 64.464 154.348 64.26 155.356 63.852C156.388 63.42 157.18 62.832 157.732 62.088C158.308 61.32 158.596 60.444 158.596 59.46C158.596 58.452 158.308 57.576 157.732 56.832C157.18 56.088 156.388 55.5 155.356 55.068C154.348 54.612 153.136 54.384 151.72 54.384C150.352 54.384 149.152 54.612 148.12 55.068C147.088 55.5 146.284 56.088 145.708 56.832C145.132 57.576 144.844 58.452 144.844 59.46C144.844 60.444 145.132 61.32 145.708 62.088C146.284 62.832 147.088 63.42 148.12 63.852C149.152 64.26 150.352 64.464 151.72 64.464ZM186.632 69.324C184.328 69.324 182.336 68.904 180.656 68.064C179 67.224 177.716 66.06 176.804 64.572C175.916 63.084 175.472 61.38 175.472 59.46C175.472 57.516 175.94 55.8 176.876 54.312C177.812 52.8 179.12 51.624 180.8 50.784C182.48 49.92 184.448 49.488 186.704 49.488C188.024 49.488 189.248 49.644 190.376 49.956C191.504 50.244 192.5 50.628 193.364 51.108C194.228 51.588 194.912 52.104 195.416 52.656C195.92 53.184 196.22 53.7 196.316 54.204L194.876 54.42V49.884H200.564V69H194.768V63.672L195.92 64.176C195.872 64.752 195.584 65.34 195.056 65.94C194.552 66.54 193.88 67.104 193.04 67.632C192.2 68.136 191.228 68.544 190.124 68.856C189.02 69.168 187.856 69.324 186.632 69.324ZM188.072 64.464C189.488 64.464 190.7 64.26 191.708 63.852C192.74 63.42 193.532 62.832 194.084 62.088C194.66 61.32 194.948 60.444 194.948 59.46C194.948 58.452 194.66 57.576 194.084 56.832C193.532 56.088 192.74 55.5 191.708 55.068C190.7 54.612 189.488 54.384 188.072 54.384C186.704 54.384 185.504 54.612 184.472 55.068C183.44 55.5 182.636 56.088 182.06 56.832C181.484 57.576 181.196 58.452 181.196 59.46C181.196 60.444 181.484 61.32 182.06 62.088C182.636 62.832 183.44 63.42 184.472 63.852C185.504 64.26 186.704 64.464 188.072 64.464ZM217.476 69V43.98H223.236V69H217.476ZM211.932 54.924V49.884H229.824V54.924H211.932ZM242.917 69V49.884H248.677V69H242.917ZM245.761 45.744C244.681 45.744 243.841 45.492 243.241 44.988C242.641 44.46 242.341 43.716 242.341 42.756C242.341 41.892 242.641 41.184 243.241 40.632C243.865 40.08 244.705 39.804 245.761 39.804C246.841 39.804 247.681 40.068 248.281 40.596C248.905 41.1 249.217 41.82 249.217 42.756C249.217 43.644 248.905 44.364 248.281 44.916C247.657 45.468 246.817 45.744 245.761 45.744ZM265.194 69V50.46C265.194 48.804 265.554 47.364 266.274 46.14C266.994 44.916 268.002 43.968 269.298 43.296C270.594 42.624 272.106 42.288 273.834 42.288C275.274 42.288 276.486 42.456 277.47 42.792C278.478 43.128 279.27 43.464 279.846 43.8L278.226 48.084C277.818 47.868 277.266 47.64 276.57 47.4C275.898 47.136 275.214 47.004 274.518 47.004C273.63 47.004 272.898 47.16 272.322 47.472C271.746 47.784 271.314 48.204 271.026 48.732C270.762 49.236 270.63 49.812 270.63 50.46V69H267.93C267.402 69 266.91 69 266.454 69C265.998 69 265.578 69 265.194 69ZM260.982 55.536V50.784H278.514V55.536H260.982ZM292.499 77.28L298.439 67.056L298.043 69.864L286.451 49.884H293.291L298.727 60.324C299.207 61.236 299.663 62.148 300.095 63.06C300.551 63.972 300.935 64.884 301.247 65.796H299.735C300.071 65.004 300.455 64.128 300.887 63.168C301.343 62.184 301.799 61.236 302.255 60.324L307.619 49.884H314.315L303.083 69.216L298.475 77.28H292.499Z" fill="white"/>
<defs>
<linearGradient id="paint0_linear_13_637" x1="76.9065" y1="22.2753" x2="34.4601" y2="86.1731" gradientUnits="userSpaceOnUse">
<stop stop-color="#78B68D" stop-opacity="0.59"/>
<stop offset="1" stop-color="#78B68D"/>
</linearGradient>
<linearGradient id="paint1_linear_13_637" x1="76.9065" y1="22.2753" x2="34.4601" y2="86.1731" gradientUnits="userSpaceOnUse">
<stop stop-color="#78B68D" stop-opacity="0.59"/>
<stop offset="1" stop-color="#78B68D"/>
</linearGradient>
</defs>
</svg>
